<?xml version="1.0" encoding="UTF-8"?>
<svg version="1.1" viewBox="0 0 900 900" xmlns="http://www.w3.org/2000/svg">

<path transform="translate(891,228)" d="m0 0h2l-3 12-9 24-7 21-10 31-15 48-17 60-12 47-13 55-11 53-12 67-8 55-6 51-5 46-5-3-4-4v-2l-4-2-34-34-6-5-6-7-7-6v-2l-4-2-12-12-10-8v-2l-4-2-14-13-11-9-12-11-11-9-14-12-10-8-17-14-10-8-9-7-26-20-32-24-18-13-34-24-60-40-25-16-15-10-20-12-19-11-8-5 4-1 24 9 15 6 29 11 31 12 26 11 30 13 30 14 25 12 24 12 46 25 24 14 22 13 22 14 26 17 15 10 10 7 3 1 1-8 14-47 15-45 13-35 12-30 14-33 15-33 13-27 10-21 10-19 13-25 13-23 8-16-9 11-8 10-12 14-9 10-7 8-12 14-7 7-7 8-6 7-30 30-7 8-13 12-19 19h-2l-1 3-8 7-24 22-11 9-10 9-11 9-12 10-11 9-10 8-5-1-20-10-19-10-27-13-8-4 1-3 16-10 20-13 17-11 14-9 25-16 54-36 25-17 14-10 19-13 38-28 28-22 16-13 11-9 16-13 11-9 11-10 10-8z" fill="#FE6C05"/>
<path transform="translate(407,567)" d="m0 0 5 1 9 7 18 13 17 12 15 11 5 4-2 4-22 13-21 12-32 17-28 14-29 13-46 18-39 15-37 13-40 13-36 10-42 9-52 10-39 7h-5l1-2 34-15 25-11 64-30 52-26 22-12 23-12 23-13 25-14 17-10 20-12 24-15 21-13 40-25z" fill="#FE6C05"/>
<path transform="translate(195,303)" d="m0 0 11 1v82l-1 6-2 1h-7l-1-27-6 1-7 3-5 1h-12l-10-4-9-7-6-9-2-7v-13l4-11 9-10 10-5 4-1z" fill="#3E646F"/>
<path transform="translate(347,303)" d="m0 0h12l1 1v62l-1 4h-7l-3-3v-2l-10 4-6 2h-14l-10-4-8-6-6-8-3-8v-15l5-12 5-6 10-6 8-2z" fill="#3E646E"/>
<path transform="translate(465,304)" d="m0 0h19l12 6 7 8 4 8 1 4v15l-6 12-8 8-12 5h-16l-9-4-6-4-7-8-4-9-1-9 2-11 6-10 8-7z" fill="#3E646E"/>
<path transform="translate(91,279)" d="m0 0 5 2 4 8 13 30 21 49v1h-10l-6-10-54-1-2 6-4 5h-9l1-5 6-13 12-28 14-32 4-9z" fill="#3E646E"/>
<path transform="translate(165,314)" d="m0 0h30l1 1v20l-2 14-6 7-6 4-4 1h-13l-8-4-6-7-3-7v-11l4-9 8-7z" fill="#FDFDFD"/>
<path transform="translate(320,314)" d="m0 0h28l1 1v30l-3 7-7 6-9 3h-9l-8-3-5-5-4-6-1-3v-14l5-9 8-6z" fill="#FDFDFD"/>
<path transform="translate(362,280)" d="m0 0h11l7 15 15 35 8 18 3-4 16-36 12-28h11l-3 9-10 23-12 28-10 23-4 6-3 2-5-6-18-41-11-26z" fill="#3E646E"/>
<path transform="translate(572,313)" d="m0 0h14l8 5 6 7 2 6v12l-5 10-8 6-3 1h-16l-8-5-6-8-1-3v-15l5-9 9-6z" fill="#FDFDFD"/>
<path transform="translate(569,304)" d="m0 0h19l12 6 7 8 4 8 1 4v14l-4 10-7 8-5 4-10 4h-16l-9-4-6-4-7-8-4-11v-13l4-10 6-8 9-6zm3 9-8 4-5 5-4 7v15l4 8 7 6 4 2h16l8-4 6-8 2-5v-12l-3-7-7-8-6-3z" fill="#3E646E"/>
<path transform="translate(470,313)" d="m0 0h9l8 3 6 5 4 8 1 3v8l-3 9-6 7-8 4h-14l-8-4-6-7-2-5-1-10 3-9 7-8z" fill="#FDFDFD"/>
<path transform="translate(220,304)" d="m0 0h8l1 2v33l2 11 4 7 6 3h14l7-3 4-5 2-8 1-40h10v66h-8l-3-2-7 1-7 2h-12l-10-4-8-7-4-8-1-5v-42z" fill="#3E646F"/>
<path transform="translate(90,298)" d="m0 0h2l8 17 13 30v2h-43l1-5 8-19z" fill="#FDFDFD"/>
<path transform="translate(521,282)" d="m0 0h10v87l-9 1-1-1z" fill="#3E646F"/>
</svg>
