<?xml version="1.0" encoding="UTF-8"?>
<svg version="1.1" viewBox="0 0 2048 814" width="465" height="185" xmlns="http://www.w3.org/2000/svg">
<path transform="translate(901,12)" d="m0 0h19l20 4 20 7 34 17 21 13 16 11 14 10 13 10 28 22 16 13 13 10 14 11 21 16 27 18 23 12 21 7 30 5 73 9 57 9 49 9 48 10 52 13 48 14 46 15 35 13 31 13 29 13 29 15 24 14 28 15 37 17 21 10 18 11 11 8 10 8 13 12 11 13 8 13 8 18 8 27 5 8 12 7 12 6 13 9 6 5 5 7 2 9 4 5 1 7-4 7-7 6-10 3h-18l-57-7-24-2h-47l-35 2-35 1-29 1-5-5-9-10-13-21-10-13-13-17-9-15-7-16-2-8-1-8-5-13-9-17-10-14-8-10-9-10-14-14-11-9-13-10-9-8-3-12 1-2v-11l-5-13-7-6-5-2h-10l-8-11-8-4h-9l-8 4-9 14-9 13-8 8-3 2h-33l-33-3-38-5-31-6-35-10-10-2-10-1h-14l-18 3-16 5-25 9-21 4-10 1h-13l-23-3-36-7-59-11-34-5-30-3-43-1-24 1-32 4-27 6-26 8-20 8-23 11-20 12-17 12-16 13-15 13-18 13-19 12-26 15-21 12-14 9-17 12-11 9-13 12-9 11-7 11-8 16-8 21-8 30-7 37-3 14-5 3-27 8-49 16-30 10-24 6-17 3-10 1h-10l-9-1-12 11-11 10-11 9-14 12-17 13-16 11-20 12-17 8-22 8-30 8-43 9-32 5-13 1h-27l-19-2-23-5-20-7v-3l26-6 18-6 16-8 14-9 10-8 10-9 11-12 11-15 14-21 8-7 5-2h10l-8-14-1-4v-17l5-23v-8l-3-7-8-7-9-9-1-3 9-2 11-1 25 2 29 5 36 9 40 11 15 3h10l6-9 9-17 14-22 10-14 14-18 13-14 7-8 25-25 8-7 11-10 14-11 13-11 16-12 19-14 24-16 17-11 21-13 23-13 24-13 19-10 26-13 33-15 42-18 45-19 36-16 31-14 19-10 23-13 12-8 13-10 13-13 8-14 4-13 2-12v-19l-3-19-6-20-8-16-7-11-7-7-10-8-10-9-6-10 3-5 8-4zm898 435-7 2-6 7-1 2v7l4 6 5 4 8 1 6-3 4-5 1-2v-9l-4-6-4-3z" fill="#FEC336"/>
<path transform="translate(1471,577)" d="m0 0 3 3 7 13 5 6 9 6-1-8-3-18 4-2h6l3 3 8 15 11 12 14 7-6-28v-6l3-1 38 5 20 4 3 1-1 4-10 13-11 12-7 8-12 12-22 18-18 12-21 12-19 9-28 10-29 9-28 7-20 3h-24l-5-2-6-7 3-5 14-11 11-10 8-7 13-12 16-15z" fill="#FEC336"/>
<path transform="translate(1589,470)" d="m0 0h8l2 3-1 17-10-2-26-8-2-2 9-3z" fill="#FEC336"/>
</svg>
