<?xml version="1.0" encoding="UTF-8"?>
<svg version="1.1" viewBox="0 0 911 911" xmlns="http://www.w3.org/2000/svg">

<path transform="translate(259,214)" d="m0 0h248l-2 4-15 15-5 4h-215v58h18l7 3 2 3v267l-5 5-3 1h-19v61h131l-5 10-8 12-6 11-7 12-1 4 5-5 9-10 16-16 9-11 7-7 4-1h216l1-98h-70v31l-5 6-3 1h-77l6-7 13-13 3-2h41v-28l3-7 4-3 4-1-16-4-5-2-51-1-7-2-5-6v-10h-25l7-11h-73l-2 5-7 12h-2v-22l5-6h111l5 3 2 3v12h39v-101l-38 1-1 11-4 5-2 1h-111l-4-2-2-4v-93l3-5 6-2h35l-2 4-13 12-10 10 2 4 1 1v53h29l-6 7-2 3 59 1v-16l7-8 7-4 5-1h53l6 3 3 4 1 3v109l13 1h29l19-3 20-6 25-11 17-5 25-4h35l21 3 20 5 29 11 15 4 13 2h28l19-3 20-6 5-1v444h-911v-444l10 3 15 4 19 3h30l20-4 17-6 15-6 17-5 22-4 9-1h32l21 3 20 5 18 7 10 5v-154h-20l-5-4-2-4v-86l4-6z" fill="#EFD02B"/>
<path transform="translate(166,574)" d="m0 0h31l24 3 25 6 2 1v64l-14-4-18-3-11-1h-21l-20 2-23 5-25 10-23 9-15 4-11 2 10 2h16l19-3 24-7 21-3h27l24 4 19 7 12 6 20 11 16 6 20 5 14 2h30l13-2 20-5 27-11 22-8 19-4 9-1h13l21 3 16 5 34 13 15 5 19 4 9 1h24l16-2 24-6 12-5 19-10 16-8 14-5 21-4h33l24 4 21 6 12 2h23l9-2-17-3-21-7-31-13-23-6-26-3h-22l-20 2-20 4-1 2v-66l11-2 20-4 19-2h22l22 3 15 4 30 10 20 4 10 1h25l23-3 18-4 4 1-9 26-11 26-10 21-11 20-16 26-8 11-12 16-8 10-12 14-11 12-27 27-11 9-12 10-20 15-12 8-18 11-17 10-24 12-31 13-36 12-26 7-14 3 365 1v1h-911v-1l364-1-30-7-32-10-29-11-24-11-22-12-16-9-21-14-14-10-14-11-13-11-10-9-5-4-18-18-7-8-10-11-9-11-13-17-11-16-14-22-13-24-12-24-13-33-3-11h44l25-3 20-4 35-9 15-3z" fill="#135829"/>
<path transform="translate(433,65)" d="m0 0h46l32 3 24 4 25 6 27 8 28 11 25 12 21 12 24 16 12 9 11 9 14 12 24 24 9 11 11 13 13 18 14 22 12 22 10 21 10 26 9 29 7 33 4 29 1 12v42l-2 1-19-3-16-5-20-8-1-31-3-28-5-26-7-25-9-25-14-29-13-22-12-17-13-16-11-12-9-10-8-7-7-7-11-9-19-14-17-11-18-10-23-11-25-9-24-7-28-6-32-4h-50l-33 4-28 6-27 8-25 10-25 12-20 12-16 11-18 14-12 11h-2l-1 3h-2v2l-8 7-11 12-9 11-13 17-10 15-10 17-11 22-9 23-8 26-6 27-3 20-1 11-1 35-21 9-18 5-18 2-1-9v-29l3-34 6-33 7-26 8-24 11-26 10-20 13-22 11-16 12-16 9-11 10-11 7-8 17-17 11-9 9-8 17-13 18-12 20-12 25-13 32-13 28-9 29-7 24-4z" fill="#FCFDFC"/>
<path transform="translate(181,540)" d="m0 0h11l26 2 23 5 12 5-4 8-1 24-17-4-23-4-11-1h-31l-27 4-48 12-17 3-19 2h-39l-5-1 12 32 9 20 13 26 11 19 11 17 14 20 11 14 12 14 9 10 12 13 9 8 12 12 11 9 16 13 17 12 18 12 19 11 22 12 29 13 30 11 30 9 26 6 6 1v1h-370v-348l2 2 3 10v3l31-3 31-6 26-7 38-13 28-6z" fill="#FCFCFC"/>
<path transform="translate(259,214)" d="m0 0h248l-2 4-15 15-5 4h-215v58h18l7 3 2 3v267l-5 5-3 1h-19v61h131l-5 10-7 11h-134l-6-5-1-4v-87l4-6v-2l-15-5-19-4-26-2h-11l-22 2-28 6-44 15-24 6-27 5-19 2h-12l-5-15v-95l10 3 15 4 19 3h30l20-4 17-6 15-6 17-5 22-4 9-1h32l21 3 20 5 18 7 10 5v-154h-20l-5-4-2-4v-86l4-6z" fill="#F1D028"/>
<path transform="translate(172,674)" d="m0 0 28 1 10 1 9 7 18 18 11 9 10 8 14 10 21 13 19 10 27 11 27 9 30 7 28 4 11 1h39l23-2 29-5 23-6 16-5 21-8 25-12 15-8 14-9 14-10 10-8 11-9 13-13 15-7 17-6h30l25 2-2 5-13 19-14 17-10 11-7 8-7 7h-2v2l-8 7-10 9-17 13-11 8-20 13-22 12-23 11-20 8-30 10-30 7-25 4-23 2h-45l-31-3-34-6-27-7-32-11-27-12-22-12-19-12-16-11-13-10-11-9-20-18-5-5-14-15-4-5v-2h-2l-15-20-9-14v-2z" fill="#398DC7"/>
<path transform="translate(910,558)" d="m0 0h1v352h-370v-1l31-7 27-8 28-10 30-13 22-11 27-16 22-15 13-10 14-11 10-9 8-7 28-28 9-11 9-10 12-16 10-14 11-17 13-22 12-23 11-25 10-27 8-26z" fill="#FCFCFC"/>
<path transform="translate(530)" d="m0 0h381v344l-2-2-8-28-9-26-12-28-8-16-11-21-12-19-14-20-11-14-9-11-11-12-7-8-18-18-8-7-10-9-17-13-13-10-15-10-25-15-24-13-27-12-29-11-26-8-24-6-31-6z" fill="#FCFCFB"/>
<path transform="translate(0)" d="m0 0h379v1l-35 7-27 7-36 12-26 11-30 15-25 15-19 13-12 9-14 11-14 12-12 11-24 24-9 11-8 9-13 17-14 20-12 20-12 22-12 25-12 31-9 29-3 10h-1z" fill="#FCFCFB"/>
<path transform="translate(383,295)" d="m0 0h35l-2 4-13 12-10 10 2 4 1 1v53h29l-6 7-2 3 59 1v-16l7-8 7-4 5-1h53l6 3 3 4 1 3v109l13 1h29l19-3 20-6 25-11 17-5 25-4h35l21 3 20 5 29 11 15 4 13 2h28l19-3 20-6 5-1v28l-18 7-18 5-21 3h-22l-19-3-17-5-30-10-21-4-13-1h-15l-19 2-17 4-20 7-16 7-18 5-6 1h-61l-16-4-5-2-51-1-7-2-5-6v-10h-25l7-11h-73l-2 5-7 12h-2v-22l5-6h111l5 3 2 3v12h39v-101l-38 1-1 11-4 5-2 1h-111l-4-2-2-4v-93l3-5z" fill="#FBFCFB"/>
<path transform="translate(184,639)" d="m0 0h21l24 3 17 4 3 1 2 5 4 3 133 1-3 7-10 17-1 4 5-5 9-10 12-12 7-1h137l113-1 6-7 3-3 18-4 20-2h22l26 3 23 6 31 13 24 8 17 2-3 2-9 2h-23l-16-3-22-6-19-3h-33l-21 4-19 7-36 19-21 6-15 3-10 1h-24l-20-3-17-5-22-8-23-9-17-4-15-2h-13l-20 3-20 6-27 11-17 6-17 4-9 1h-30l-19-3-21-6-18-8-19-11-21-8-19-4-8-1h-27l-21 3-24 7-19 3h-16l-10-2-3-2 18-3 17-5 34-14 11-4 20-4z" fill="#388CC6"/>
<path transform="translate(172,486)" d="m0 0h33l19 3 20 6 24 10 7 3v44l-22 1-12-5-23-5-26-2h-11l-22 2-28 6-44 15-24 6-27 5-19 2h-12l-5-15v-67l10 3 18 6 22 4h36l21-4 15-5 19-7 23-5z" fill="#135829"/>
<path transform="translate(717,486)" d="m0 0h15l20 2 21 5 23 8 17 5 19 3h22l21-3 21-6 13-5h2v63l-4 15-5 2-14 2h-28l-22-3-27-7-21-8-25-10-22-5-17-2h-24l-22 3-13 4-4 2-1-29-3-5-3-2-40-1v-1l19-4 15-5 19-8 19-6 17-3z" fill="#135829"/>
<path transform="translate(383,295)" d="m0 0h35l-2 4-13 12-10 10 2 4 1 1v53h29l-6 7-2 3 59 1v-16l7-8 7-4 5-1h53l6 3 3 4 1 3v109l4 1h-3v16l-3 6-4 3-10 2-3-1-51-1-7-2-5-6v-10h-25l7-11h-73l-2 5-7 12h-2v-22l5-6h111l5 3 2 3v12h39v-101l-38 1-1 11-4 5-2 1h-111l-4-2-2-4v-93l3-5z" fill="#FCFDFC"/>
<path transform="translate(389,484)" d="m0 0h56l-5 9-19 29 108 1-6 7-16 15-11 11-8 7-11 11-8 7-11 11h-2l-1 3-8 7-14 14-8 7-13 13-7 5 2-6 8-13 19-32 13-21 1-3h-111l4-8 14-22 12-19 11-17 10-15z" fill="#F0D028"/>
<path transform="translate(174,451)" d="m0 0h32l21 3 20 5 18 7 9 5v36l-9-2-24-10-17-5-19-3h-33l-19 3-21 6-18 7-21 5-7 1h-36l-22-4-24-8-4-2v-28l10 3 15 4 19 3h30l20-4 17-6 15-6 17-5 22-4z" fill="#FBFCFB"/>
<path transform="translate(527,214)" d="m0 0h125l7 3 4 5v124l-4 6-3 2h-98l-5-3-3-3-1-3v-28h-18l4-7 10-14 17-1 6 3 3 4v30h70v-95h-132l7-11 8-11z" fill="#F0D029"/>
<path transform="translate(261,226)" d="m0 0h234l-2 4-8 7h-215v58h18l7 3 2 3v267l-5 5-3 1h-19v61h131l-5 10-3 1-133-1-1-21v-58l1-2 4-1 22-1v-255l-26-1-1-18v-51l1-10z" fill="#FAFBFA"/>
<path transform="translate(181,540)" d="m0 0h11l26 2 23 5 12 5-4 8-1 24-17-4-23-4-11-1h-31l-27 4-48 12-17 3-19 2h-39l-6-2-5-15v-2l31-3 31-6 26-7 38-13 28-6z" fill="#59AAD7"/>
<path transform="translate(702,541)" d="m0 0h24l23 3 19 5 22 9 24 9 24 6 22 3h28l18-2-3 13-1 2-22 5-23 3h-25l-21-3-15-4-34-11-18-3-9-1h-22l-24 3-25 5-1-1v-31l4-3 13-4z" fill="#59AAD7"/>
<path transform="translate(504,230)" d="m0 0 1 2-17 28-8 13-13 21-1 3h70l-6 8-7 9-9 11-16 20-9 11-9 5-7 7-8 11h-31l2-5 11-15 11-16 14-20-72-1 6-7 11-9 12-11 11-9 14-13 11-9 7-7 11-9 10-9 8-7z" fill="#F0D028"/>
<path transform="translate(560,525)" d="m0 0h92v121h-241l3-5 6-6 4-1h216l1-98h-70v31l-5 6-3 1h-77l6-7 4-4h64z" fill="#F8FAF6"/>
<path transform="translate(399,316)" d="m0 0 3 1-1 4 72 1-7 11-28 40-3 4 1 3h29l8-9 6-8 10-2 7-2h51l10 5 3 8v107h5v1h-7l-1-109-3-6-6-3h-53l-9 3-8 7-1 2-1 16h-58l3-1 2-5 3-3v-2l-6-1h-14l-7-1-1-2-1-50-2-5 3-1z" fill="#135829"/>
<path transform="translate(516,226)" d="m0 0h132l3 1v115l-7 1-83-1-1-36h-21l2-4 4-6 17-1 6 3 3 4v30h70v-95h-132z" fill="#F9FAF8"/>
<path transform="translate(495,361)" d="m0 0h53l6 3 3 4 1 3v109l4 1h-3v16l-3 6-4 3-10 2-3-1-51-1-7-2-5-6v-10h-25l6-9v-3h29l1 2v16l59-1v-118l-2-1-56-1-1 17-1 1h-9l-1-1v-16l7-8 7-4z" fill="#F0D029"/>
<path transform="translate(259,214)" d="m0 0h248l-2 4-9 9h-235l-1 10v69h26l1 1v255l-1 1-26 1v81h133l1 3-5 8h-134l-6-5-1-4v-87l4-6 4-2h19l-1-44v-37l1-154h-20l-5-4-2-4v-86l4-6zm-3 2-5 4-1 2-1 85 3 5 3 3 15 1h5l1 4v233h-17l-8 4-1 3-1 84 3 8 6 3h129l4-5v-2l-6-1h-119l-9-2 1-83h16l10-1 1-1v-249l-3-3h-24v-82l2-2h237l6-6v-2z" fill="#E1D146"/>
<path transform="translate(241,717)" d="m0 0 6 4 15 13 5 7 1 3v11l-5 8-5 5-8 3h-7l-10-4-8-6-12-10v-1l7-2 11-13 9-12z" fill="#FBFCFA"/>
<path transform="translate(338,776)" d="m0 0 13 2 9 6 4 6 1 3v11l-4 8-5 5-8 4h-12l-10-5-7-8-1-3v-12l4-8 7-6z" fill="#FBFCFA"/>
<path transform="translate(527,214)" d="m0 0h125l7 3 4 5v124l-4 6-3 2h-98l-5-3-3-3-1-3v-28h-18l4-7 3-4h22l-3 2-18 1-3 4v2h13l2 2 1 31 3 1v2l5 1h93l5-3 2-3v-124l-3-4-3-1h-127l-4 3 1 3h124l4 1v120l-1 1h-90l-1-1v-35h1v33h90v-115l-134-1 7-11z" fill="#E2D146"/>
<path transform="translate(258,225)" d="m0 0h239l-2 2h-234l-1 10v69h26l1 1v255l-1 1-26 1v81h133v1h-136l-1-2 1-82 1-1h16l10-1v-249l-2-2-24-1-1-3v-79z" fill="#D0D895"/>
<path transform="translate(385,306)" d="m0 0h22l-6 7-8 8 2 4 1 1v53h29l-6 7-3 5h-29l-3-1v-83z" fill="#F1D028"/>
<path transform="translate(254,213)" d="m0 0h254v4l-12 12v-3l10-10v-1h-247l-7 3-3 5v86l4 6 2 1 20 1v154l-6-2-3-3 6 1 1-148h-19l-7-8-1-4v-85l5-7z" fill="#1E4F18"/>
<path transform="translate(611,760)" d="m0 0h3v6l12 25 2 3 4 2v2l-12 6h-2l-1-9-8-18v31l-4-2-10-9-12-12 10 23 3 4v3l-4 2h-4v-7l-9-20-4-8-3-3 9-4 5 2 16 15 2 1-1-28z" fill="#FCFCFB"/>
<path transform="translate(567,780)" d="m0 0 3 1v8l8 26v2l4 1v2l-12 4-3-1 1-6-5-19v-5h-2l-1 17-2 16h-3l-12-17-5-6 1 7 5 16 1 5-8 1v-10l-7-25-4-5 12-3 11 14 5 7 2-10 2-16z" fill="#FBFCFA"/>
<path transform="translate(499,797)" d="m0 0h7l-1 14-3 21-2 5h-3l-10-21v-3h-2l-2 10-5 15-4 1-3-7-8-26-3-5v-3h13v9l4 13 1 1 7-23h3l10 21v2h2v-9l1-12z" fill="#FBFCFA"/>
<path transform="translate(340,781)" d="m0 0h7l7 4 3 6-1 10-5 10-5 4-2 1h-9l-6-4-3-7 1-9 4-8 5-5z" fill="#398DC7"/>
<path transform="translate(544,656)" d="m0 0h102l-3 2-19 6-19 3h-30l-16-3-12-5z" fill="#145727"/>
<path transform="translate(665,722)" d="m0 0h2l4 8 12 17 8 11-1 3-17-3-25-7 6 8 8 11 5 6-2 4-3 2h-3l-1-7-11-16-7-9-5-2 1-3 8-5 29 8h3l-10-16-5-6z" fill="#FAFBF9"/>
<path transform="translate(703,692)" d="m0 0 7 6v2h-8l-10 4-4 5-1 2v9l6 8 8 5 7 1 7-3 5-5 1-4-3-3-8-4 6-7 4-3 4 6 7 6-6 11-5 6-9 6-4 2h-11l-8-4-7-8-2-5v-9l4-9 6-7 7-4z" fill="#FCFCFB"/>
<path transform="translate(247,729)" d="m0 0 4 1 7 6 3 6v8l-7 10-5 4-3 1h-8l-7-4-4-3v-5l13-16 5-7z" fill="#3A8DC7"/>
<path transform="translate(524,213)" d="m0 0h133l6 5 2 5v124l-6 8-4 1h-97l-7-4-3-4-1-13v-16h-15l-1-2h18l1 28 3 5 5 3h98l5-5 1-2v-124l-4-5-6-2h-124z" fill="#1E4F18"/>
<path transform="translate(267,656)" d="m0 0h97l-1 2-17 6-10 2-10 1h-27l-16-3-15-6z" fill="#13592A"/>
<path transform="translate(372,787)" d="m0 0 8 1 4 2 14 28 3-12 1-10-1-3 8 1v4l-4 16-4 21-4 1-6-10-13-26h-1l-5 23v8l-7-1v-4l4-15 4-20z" fill="#FBFCFA"/>
<path transform="translate(214,692)" d="m0 0 4 2 17 17 2 5-4 4h-3l-2-9-6-6-5 1-5 5 1 4 9 8-2 4-4 2-3-6-5-6h-3l-7 8-1 5 7 6 11 4-1 3h-2v2l-3 1-11-9-12-11-3-3v-2h5l8-8 5-4 1-2h2l1-3 5-5 3-4z" fill="#FAFBF9"/>
<path transform="translate(297,761)" d="m0 0h10l7 3 9 8-2 7-2 1-4-8-5-4-2-1h-9v5l13 13 2 3v7l-4 6-6 3h-9l-12-6-4-3v-2h-2l1-5 3-4h2l2 7 5 5 4 2h7l3-2-1-6-12-12-2-4v-6l4-5z" fill="#FCFDFC"/>
<path transform="translate(438,797)" d="m0 0h12l8 3v8l-7-5-9-1-5 3 1 4 18 9 3 4v9l-6 7-5 2h-12l-11-3v-11l7 6 7 3 9-1 3-5-2-4-18-8-3-4v-8l5-6z" fill="#FCFCFB"/>
<path transform="translate(275,511)" d="m0 0h2v39l-1 3-4 1h-13l-7 3-1 3-1 84 2 8 6 2h129l4-6h-125l-7-1v-1h135l-2 5-3 5h-134l-6-5-1-4v-87l4-6 4-2h19z" fill="#E1D046"/>
<path transform="translate(517,225)" d="m0 0h134l1 1v118l-1 1h-90l-1-1v-35h1v33h90v-115l-134-1z" fill="#D1D890"/>
<path transform="translate(495,361)" d="m0 0h53l6 3 3 4 1 3v109l4 1h-3v16l-3 6-4 3-10 2-3-1-51-1-7-2-5-6v-10h1l2 11 6 4 60 1 7-2 4-5v-118l-3-13-3-2h-58l-7 2 3-3z" fill="#E0D14B"/>
<path transform="translate(544,370)" d="m0 0h4l1 2v121l-2 2h-61v-17h1v16l59-1v-118l-2-1-56-1-1 17h-1v-19z" fill="#D3D786"/>
<path transform="translate(254,213)" d="m0 0h254v4l-12 12v-3l10-10v-1h-247l-7 3-4 5v-4l5-5z" fill="#1A521E"/>
<path transform="translate(389,484)" d="m0 0h56l-3 5-1-3h-51l-4 6-15 25h-2l-2 5-5 7-4 7-6 9-5 9-4 5v5h87l18 1v1h-111l4-8 14-22 12-19 11-17 10-15z" fill="#E1D146"/>
<path transform="translate(662,647)" d="m0 0 1 2-6 7-113 1h-143l5-6 1 3h246l5-1 2-4z" fill="#C8C561"/>
<path transform="translate(629,750)" d="m0 0h2l1 8 10 17 6 9 4 1-1 3-10 6h-2l-2-9-14-23-5-3v-3z" fill="#FBFCFA"/>
<path transform="translate(275,320)" d="m0 0h2v190l-2 1-1-3v-37z" fill="#DFD14F"/>
<path transform="translate(280,747)" d="m0 0 5 2 7 5-1 2-4 2-12 19-4 7-1 7-5-2-7-5v-2l4-2 14-23 3-5z" fill="#FCFCFB"/>
<path transform="translate(496,359)" d="m0 0h51l10 5 3 8v107h5v1h-7l-1-109-3-6-6-3h-53l-9 3-8 7-1 2-1 15-3-1 1-14 2-4 5-5 10-5z" fill="#1E4F18"/>
<path transform="translate(520,793)" d="m0 0h2l-1 7 6 28 3 4v2l-14 2 1-8-6-28-3-4 6-2z" fill="#FCFCFB"/>
<path transform="translate(385,306)" d="m0 0h22v1l-19 2-1 5v22l1 53 29-1-1 3h-29l-3-1v-83z" fill="#D8D56F"/>
<path transform="translate(531,317)" d="m0 0h18l1 28 3 5 5 3 98 1-1 2h-97l-7-4-3-4-1-13v-16h-15z" fill="#1E4F18"/>
<path transform="translate(444,485)" d="m0 0h2l-2 4-5 9-2 2v8l-2-1v-2l-2 1-4 7-3 6h-2v2h103l2 2h-109l5-9 10-15 7-11z" fill="#1E4F18"/>
<path transform="translate(659,517)" d="m0 0 3 2 1 3v125l-2 1-1-97v-30z" fill="#E2D146"/>
<path transform="translate(401,322)" d="m0 0h72l-7 11-28 40-5 5-1-2h2l2-5 7-9 7-11 2-3h2l2-6 9-12 3-5-68-1z" fill="#1E4F18"/>
<path transform="translate(536,296)" d="m0 0 2 2-8 10-1 3-5 5-4 5-4 6-5 5-9 11-3 4h-2l-2 5-1 3h-2v2l-9 4 1 2-6 2-10 13-3 3h-30l-1-2 31-1 9-12 7-7 9-5 9-11 16-20 9-11 10-13z" fill="#1D501A"/>
<path transform="translate(258,225)" d="m0 0h1l1 81h26v8l-2-3-2-2-24-1-1-3v-79z" fill="#DDD25A"/>
<path transform="translate(406,307)" d="m0 0 2 1-4 4-1 3 4-1-5 5-1-2h-2l-3 4 2 4 1 52h25l3 2-2 4-4 6-5 1 3-5 5-5-28-1-1-53-3-3 2-4z" fill="#1E4F18"/>
<path transform="translate(420,523)" d="m0 0h109l-6 7-5 5-2-1 3-5 5-3-103-1z" fill="#E1D046"/>
<path transform="translate(566,513)" d="m0 0h50l40 1 3 3-5-1h-96l-6 5-1 31h-2v-28l3-7 4-3z" fill="#DDD35B"/>
<path transform="translate(559,526)" d="m0 0h1v37h-63l6-7 5-4h41v1l-36 1-7 2-3 5h56z" fill="#DAD465"/>
<path transform="translate(504,230)" d="m0 0 1 2-17 28-8 13-13 21-2 1 2-5 7-12 6-10 8-13 9-15-9 7-8 7-10 9-10 8h-3l15-14 11-9 10-9 8-7z" fill="#E2D146"/>
<path transform="translate(267,656)" d="m0 0h97l-1 2-9 1h-65l-9 1-4-1-8-1z" fill="#195320"/>
<path transform="translate(454,273)" d="m0 0h2l-1 3-6 5-8 7-10 9-8 7-5 5-10 8-2 3 67 1v1h-73l6-7 11-9 12-11 11-9z" fill="#E2D146"/>
<path transform="translate(524,213)" d="m0 0h133l3 3-1 2-7-3h-124z" fill="#1B521D"/>
<path transform="translate(544,509)" d="m0 0 22 4v1l-10 1-5 5-1 4-1 28-41 1-3 1 2-4h40l-1-3 1-3v-19l3-8 2-4-8-3z" fill="#1E4F18"/>
<path transform="translate(337,567)" d="m0 0h111l-2 5-19 32-4 6-1-2 10-18 10-16 3-6h-108z" fill="#1D5019"/>
<path transform="translate(398,307)" d="m0 0h8l-6 7-7 7 2 4 1 1v53h29l-6 7-3 2 1-4h2v-3h-23l-1-1-1-52-2-1-1-7 1-2h2l1-4 3-1 2-4h-2z" fill="#E1D146"/>
<path transform="translate(448,568)" d="m0 0 1 2-6 10-7 12-1 3-3 3-1 4-3 3-3 5-7 12-3 5 1 1 5-4 2 1-11 11-7 5 2-6 8-13 19-32 13-21z" fill="#E2D146"/>
<path transform="translate(538,306)" d="m0 0h22l-3 2-18 1-3 4v2h13l2 2 1 31 3 1v2l3 1-3 1-5-5-1-3v-28h-18l4-7z" fill="#E2D045"/>
<path transform="translate(495,346)" d="m0 0v3l-6 7-9 5-7 7-8 11h-31l2-5 7-9 1 2-5 7v2h26l9-13 6-5 9-6 5-5z" fill="#E2D146"/>
<path transform="translate(465,297)" d="m0 0h71l-6 8-7 9-9 11-8 10-2 1v-4l5-5 3-4h2l2-4 11-13 3-7-65-1z" fill="#E2D146"/>
<path transform="translate(627,511)" d="m0 0 27 1 7 2 4 8v28l-2 1-1-29-3-5-3-2-40-1v-1z" fill="#1B511D"/>
<path transform="translate(387,484)" d="m0 0 1 2-16 25-11 17-12 19-11 18h-2l2-5 8-13 10-15 5-9 6-9 11-17 4-6z" fill="#1C501B"/>
<path transform="translate(451,488)" d="m0 0h25l1 10 4 5 7 2 51 1v1l-55 1v-2l-5-1-5-5-1-2 1-8h-22z" fill="#1F4F18"/>
<path transform="translate(457,476)" d="m0 0h29v19h-1l-1-15h-25l-4 7 7-1h12l2 2h-25l6-9z" fill="#DDD35B"/>
<path transform="translate(479,571)" d="m0 0v3l-3 3h-2l-2 4-8 7-8 8-7 6-5 5-4 5-9 7-7 8-8 7-2-1 17-17 8-7 14-14 8-7 14-14z" fill="#1C511B"/>
<path transform="translate(267,506)" d="m0 0 7 1 1 1v44l-21 1 1-3h18l-1-40 1-2-6-1z" fill="#1E4F18"/>
<path transform="translate(470,322)" d="m0 0 3 1-12 17-16 23-10 14h-3l2-1 2-5 7-9 7-11 2-3h2l2-6 9-12 4-7z" fill="#1D501A"/>
<path transform="translate(663,584)" d="m0 0h2l1 59-2 5h-1z" fill="#1E4F18"/>
<path transform="translate(257,584)" d="m0 0h2v62l-3-1z" fill="#E2D146"/>
<path transform="translate(258,561)" d="m0 0h14l14 1v1l-26 1v11l-1 9h-2v-22z" fill="#D6D578"/>
<path transform="translate(473,322)" d="m0 0 2 1-2 2-2 5-2 1-3 5-7 10-6 9-6 7v-3l11-16 14-20z" fill="#E2D146"/>
<path transform="translate(483,366)" d="m0 0 2 1-1 3-5 3-1 5v9l5 1 1-1v-13l2-2v19h-9l-1-1v-16z" fill="#DDD258"/>
<path transform="translate(444,485)" d="m0 0h2l-2 4-5 9-2 2v8l-2-1v-2l-2 1-4 7-3 6h-3l2-5 10-15 7-11z" fill="#1D501A"/>
<path transform="translate(488,560)" d="m0 0 2 1-13 13-8 7-11 11-2-1 5-5 6-7 8-7 5-5z" fill="#E2D146"/>
<path transform="translate(538,306)" d="m0 0h22l-3 2-18 1-3 4 1 4h-6l4-7z" fill="#D9D469"/>
<path transform="translate(440,489)" d="m0 0 1 2-12 19-9 13-1-3 6-8 3-7 6-7z" fill="#E2D146"/>
<path transform="translate(421,624)" d="m0 0 2 1-11 11-7 5 2-6 6-8 2 2z" fill="#E0D14C"/>
<path transform="translate(504,230)" d="m0 0 1 2-11 18h-2l2-5 3-5-4 1 6-7z" fill="#E0D14B"/>
<path transform="translate(528,524)" d="m0 0 2 1-5 6-8 7-5 5h-2v2l-6 5-2-1 14-14 8-7z" fill="#1C501B"/>
<path transform="translate(420,611)" d="m0 0 1 3-12 20-4 7-3-1 3-4 6-11 2-4h2l2-5z" fill="#1C511B"/>
<path transform="translate(454,592)" d="m0 0h2l-1 3-8 7-14 14-2-1 4-5 5-5 10-9z" fill="#E2D146"/>
<path transform="translate(514,534)" d="m0 0 2 2-20 20-5 3v-3l4-2 17-17z" fill="#E2D146"/>
<path transform="translate(544,509)" d="m0 0 22 4v1l-10 1-5 5-2 4v-6l3-3v-2l-8-3z" fill="#1B511D"/>
<path transform="translate(446,278)" d="m0 0h2v2l-8 7-14 12-2-1 12-11h2l2-4z" fill="#1D501A"/>
<path transform="translate(556,498)" d="m0 0 1 4-5 4-10 2-3-1v-2l13-3z" fill="#D4D57D"/>
<path transform="translate(406,307)" d="m0 0 2 1-4 4-1 3 4-1-5 5-1-2h-2l-3 3-2-1z" fill="#1E4F18"/>
<path transform="translate(385,306)" d="m0 0h22v1l-19 2-2 5h-1l-1-7z" fill="#D5D67E"/>
<path transform="translate(475,488)" d="m0 0h1l1 10 4 5 7 2v1h-7l-6-4-2-4 1-1z" fill="#19531F"/>
<path transform="translate(413,309)" d="m0 0m-1 1m-1 1m-1 1v3l-4 5 4 1v1h-10l6-7z" fill="#E1D148"/>
<path transform="translate(425,378)" d="m0 0 2 1-2 4-4 6-5 1 3-5z" fill="#1B511C"/>
<path transform="translate(421,300)" d="m0 0h2v2l-11 9-4 2 6-7z" fill="#1D501A"/>
<path transform="translate(488,259)" d="m0 0v3l-5 10h-2l-1 4-2-1 8-14z" fill="#1C501B"/>
<path transform="translate(462,264)" d="m0 0h2v2l-11 9-4 2 6-7z" fill="#1D501A"/>
<path transform="translate(443,605)" d="m0 0v3l-10 10-3-1 10-9z" fill="#1E4F19"/>
<path transform="translate(394,320)" d="m0 0 2 1 2 6-1 10h-1l-1-11-3-4z" fill="#1A531F"/>
<path transform="translate(505,230)" d="m0 0h2l-2 5-4 7-2 3-2-1z" fill="#1C511B"/>
<path transform="translate(485,372)" d="m0 0h1v18h-6l2-2 2-1v-13z" fill="#E2D146"/>
<path transform="translate(479,571)" d="m0 0v3l-3 3h-2l-2 4-4 1 6-7z" fill="#1B511D"/>
<path transform="translate(527,214)" d="m0 0m-3 1h3v2l-4 3-1 5-4-1z" fill="#E2D044"/>
</svg>
