<?xml version="1.0" encoding="UTF-8"?>
<svg version="1.1" viewBox="0 0 900 900" xmlns="http://www.w3.org/2000/svg">

<path transform="translate(421,86)" d="m0 0h42l29 3 28 5 30 8 10 3v2l10 3 19 8 4 1v2l9 3 4 2v2l5 1 18 11 14 10 13 11 11 9 41 41 9 11 7 8 13 18 12 19 14 26 4 9 11 28 7 25 5 25 3 23 1 26-2 7h-16l-3-4-2-21-2-22-5-28-6-22-8-24-9-21-12-23-12-19-12-16-13-16-14-15-8-7-15-13-11-8-14-10-18-11-18-10-26-12-24-9-25-7-29-6-23-3h-47l-26 3-29 6-25 7-26 10-25 12-18 10-21 13-19 14-13 11-10 9-16 16-9 11-11 13-2 4 8-7 21-21 11-9 14-10 13-8 21-11 23-9 29-8 21-4 15-2 15-1h28l27 3 22 4 24 6 20 7 16 8 18 10 16 11 13 10 13 11 22 22 7 8 11 13 15 20 10 16 9 17 10 24 6 19 5 21 3 20v32l-7 2-3 5-15 1h-522l-16-2-1-4v-40l3-23 6-29 8-26 6-15 5-12 15-29 11-17 10-14 11-14 9-10 7-8 33-33 8-7 14-12 15-11 19-12 12-7 23-11 24-9 30-8 25-5 22-3z" fill="#CD904E"/>
<path transform="translate(420,108)" d="m0 0h47l23 3 29 6 25 7 26 10 26 12 23 13 11 7 14 10 13 10 14 12 16 15 7 8 14 17 12 17 12 20 13 25 9 24 7 21 6 26 4 25 2 29 2 9 1 1 10 1v1l-11 1-2 2-39 1h-83v-1h5l-1-32-4-24-6-24-7-20-12-26-8-14-12-17-11-14-12-14-12-13-17-17-14-11-15-11-21-13-16-8-14-6-23-7-28-6-23-3-11-1h-28l-22 2-24 4-28 7-22 8-25 12-16 10-14 10-15 13-23 23h-2l2-5 11-13 9-11 23-23 11-9 17-13 15-10 22-13 29-15 23-9 21-7 30-7 27-4z" fill="#E7C394"/>
<path transform="translate(421,86)" d="m0 0h42l29 3 28 5 30 8 10 3v2l10 3 19 8 4 1v2l9 3 4 2v2l5 1 18 11 14 10 13 11 11 9 41 41 9 11 7 8 13 18 12 19 14 26 4 9 11 28 7 25 5 25 3 23 1 26-2 7h-16l-3-4-2-21-2-22-5-28-6-22-8-24-9-21-12-23-12-19-12-16-13-16-14-15-8-7-15-13-11-8-14-10-18-11-18-10-26-12-24-9-25-7-29-6-23-3h-47l-26 3-29 6-25 7-26 10-25 12-18 10-21 13-19 14-13 11-10 9-16 16-9 11-11 13-2 4 8-7 21-21 11-9 14-10 13-8 21-11 23-9 29-8 21-4 15-2 15-1h28l27 3 22 4 24 6 20 7 16 8 18 10 16 11 13 10 13 11 22 22 7 8 11 13 15 20 10 16 9 17 10 24 6 19 5 21 3 20v32l-5 1h-9l-5-43-6-29-8-26-9-21-8-15-14-21-10-13-9-11-17-17-11-9-18-13-24-14-23-11-23-9-16-5-18-4-19-3-10-1h-39l-18 2-26 5-18 5-20 8-24 11-22 13-17 12-14 11-16 15-12 13-10 13-9 14-10 17-8 18-7 19-5 19-4 28-4 36-5 4-6 2-8 1v-40l3-23 6-29 8-26 6-15 5-12 15-29 11-17 10-14 11-14 9-10 7-8 33-33 8-7 14-12 15-11 19-12 12-7 23-11 24-9 30-8 25-5 22-3z" fill="#5B4B32"/>
<path transform="translate(115,553)" d="m0 0h11l13 5 16 10 13 10 11 8 23 12 11 4 5 1 13-1 16-7 25-13 11-8 14-10 14-7 16-4h12l15 4 16 8 14 10 10 7 35 18 10 3h8l9-2 21-9 26-12 20-12 17-9 16-5 5-1h10l17 4 15 7 15 8 16 10 21 10 12 6 16 5h12l12-4 27-14 8-4 2-4 11-8h7l8 4 2 7-8 9-10 5-17 12-15 10-14 7-12 3h-14l-15-3-20-8-16-9-14-10-15-10-10-5-13-4-7-1h-12l-17 3-12 5-16 9-17 11-13 8-15 8-15 5-5 1h-14l-16-4-14-7-13-10-11-9-15-9-17-8-14-3-14 1-15 5-18 10-13 9-20 14-16 8-10 3h-15l-12-3-16-7-20-12-16-12-10-7-14-8-12-2-9-11v-5z" fill="#63989C"/>
<path transform="translate(99,458)" d="m0 0h19l15 4 16 9 19 14 11 9 18 13 14 7 7 2h9l12-5 24-16 13-10 15-12 15-9 14-5 6-1h11l14 3 17 8 16 12 15 12 20 14 15 8 3 1h10l14-5 20-11 14-9 23-15 16-9 11-5 13-4h15l15 4 16 7 16 10 39 26 15 8 11 3h8l10-3 14-8 18-13 15-11 17-10 12-5h10l5 3v9l-7 8-1 1-11 2-21 11-17 11-10 7-14 8-11 4-4 1h-19l-17-4-19-7-15-6-11-6-17-13-17-10-11-4h-12l-16 5-18 11-10 7-14 8-36 15-14 4h-17l-17-5-15-8-17-13-34-18-14-6h-9l-16 6-24 12-18 10-9 7-13 8-12 5-8 2h-12l-15-4-17-7-23-14-17-11-14-8-8-4-9-2-18-1-3-3-1-4v-7l3-6z" fill="#63989C"/>
<path transform="translate(328,641)" d="m0 0h10l12 2 16 7 32 24 19 11 15 5 6 1h11l16-4 18-7 19-11 23-15 16-8 9-3 12-2 17 1 15 5 23 12 10 7 26 16 19 10 7 1 5 6v7l-2 7-1 1-8-1-24-10-20-11-15-9-29-15-12-4h-13l-13 3-25 12-21 11-24 14-19 8-9 2h-12l-16-4-16-8-17-13-10-6-25-13-11-5-4-1h-9l-13 4-35 18-16 10-10 7-16 8-12 3h-23l-2-4-1-12 1-4 7-2 18-1 10-2 17-7 13-8 12-9 11-9 11-7 13-5z" fill="#63989C"/>
<path transform="translate(567,735)" d="m0 0h10l20 3 11 4 4 5 1 9-6 7-4 2h-6l-14-9-10-4h-16l-12 4-11 6-12 8-8 6-15 10-22 13-16 7-12 3h-11l-14-3-10-4-14-9-13-10-21-16-17-11-9-4-10-1-8 6-12 3-15 7-6 2-7-2-1-1v-15l30-15h32l16 3 12 5 11 6 34 25 14 8 10 3h9l13-5 18-10 15-10 16-10 16-8 12-4 16-3z" fill="#62979B"/>
<path transform="translate(457,187)" d="m0 0 14 2v2l3-1 4 2 7 1 9 4 5 2 1 2 7 3v2l7 2 5 3v2l6 2 2 1v2l5 2v2l5 2 12 9 11 9 5 6 4 3v2l4 2 9 12 7 8 2 3-1 3-5-4-11-14-18-18-11-9-18-13-24-14-23-11-23-9z" fill="#45342B"/>
<path transform="translate(574,250)" d="m0 0 1 2 4 2 8 8v2l5 2 6 5 15 20 10 16v3h-3l-2-6-2-1v-2h-2l-8-11-9-10-6-7v-3l-4-2-4-5v-2l-4-2-5-6z" fill="#45342B"/>
<path transform="translate(516,201)" d="m0 0 9 1 19 14 8 7 2 4-3 1-5-3v-2l-5-2-4-4-7-5v-2l-6-2-8-6z" fill="#46352B"/>
<path transform="translate(422,177)" d="m0 0h11l18 6v2l-10-1-18-4z" fill="#48372B"/>
<path transform="translate(320,178)" d="m0 0h6l-1 2-22 5h-6l2-3z" fill="#4C3B2C"/>
<path transform="translate(457,187)" d="m0 0 14 2v2l3-1 2 3-1 2-10-3-8-3z" fill="#4A392C"/>
<path transform="translate(175,239)" d="m0 0 4 2-7 7h-2l2-5z" fill="#D19757"/>
<path transform="translate(306,181)" d="m0 0h2l-1 3-10 1 2-3z" fill="#46352B"/>
</svg>
