<?xml version="1.0" encoding="UTF-8"?>
<svg version="1.1" viewBox="0 0 2048 880" xmlns="http://www.w3.org/2000/svg">

<path transform="translate(909)" d="m0 0h116l1 2 56 7 38 7 31 8 29 9 19 7 16 6 30 13 21 10 23 13 27 16 18 12 17 12 17 13 22 18 10 9 8 7 13 13 8 7 10 10 7 8 9 9 7 8 9 10 9 11 11 14 12 17 12 18 13 21 12 22 11 22 13 32 15 44 5 19v7l-5 4-6 1-218 1-506 1h-167l-6-4-2-4-1-9 3-25 6-25 6-18 9-19 12-19 11-13 13-13 10-8 18-12 14-8 23-11 30-10 26-6 19-3 11-1h28l21 2 28 6 24 8 20 9 18 10 12 8 18 13 11 9 10 9 3 2h3l-1-16-6-26-7-19-8-16-11-18-11-14-19-19-11-9-18-12-11-6-21-10-27-9-16-4-21-3-11-1h-39l-25 3-22 5-26 8-21 8-30 14-24 14-11 7-16 11-16 13-13 12-12 12-9 11-12 16-12 19-13 24-7 12-6 6h-11l-8-5-4-6v-11l4-24 7-28 7-20 10-23 13-25 10-16 12-17 20-26 12-14 7-7 7-8 9-9 8-7 7-7 11-9 13-10 12-8 14-9 26-15 25-12 29-11 26-8 27-6 40-6 8-1z" fill="#032777"/>
<path transform="translate(1857,570)" d="m0 0h23l18 2 15 4 15 6 14 8 17 12 11 10 11 14 10 16 6 13 6 18 3 15 1 17-3 28-5 18-12 25-13 17-16 16-15 10-16 8-13 5-16 4-21 3h-17l-20-3-21-6-12-5-15-9-13-10-12-12-11-14-10-17-7-19-5-23v-33l4-20 6-16 9-17 9-13 10-12 8-7 13-10 15-9 16-7 18-5z" fill="#FCFCFC"/>
<path transform="translate(1856,529)" d="m0 0h29l21 3 19 5 20 8 17 9 16 11 13 11 16 16 11 15 9 15 9 19 7 21 4 18 1 2v198h-200l-29-7-18-6-19-9-17-11-14-12-8-7-11-11-11-15-12-22-8-19-3-9-5-26-1-10v-24l4-25 4-15 6-16 8-16 8-14 11-14 9-10 8-8 17-13 15-10 23-11 19-6 14-3zm1 41-19 3-17 5-17 8-15 10-10 8-10 9-13 17-9 16-7 16-4 15-2 11v33l5 23 7 19 10 17 8 10 11 12 10 9 15 10 16 8 20 6 15 3 9 1h17l26-4 20-6 16-8 15-9 12-11 10-10 12-17 11-23 5-18 3-28-1-17-3-15-7-21-9-17-10-14-11-13-12-10-17-11-16-8-18-6-12-2-11-1z" fill="#032777"/>
<path transform="translate(1320,540)" d="m0 0h117l20 2 16 5 16 8 11 11 8 13 5 13 2 11v10l-4 23-1 4v10l1 3 4 2 12 11 11 11 11 15 8 15 6 17 3 16v18l-3 17-7 21-9 17-8 10-8 9-14 11-14 8-20 8-19 4-9 1h-43l-11-2-5-3-6-10-1-4v-8l4-10 7-6 4-2 6-1h41l13-2 12-4 12-6 9-7 5-5 7-8 7-15 2-9v-23l-3-11-8-16-11-12-13-9-13-6-24-8-6-4-4-6-1-3v-13l4-8 10-7 12-6 7-10 1-9-3-9-5-8-7-4-9-2h-43l-60 1-3 3-1 4v245l-2 11-5 8-3 3-9 3-12-1-8-4-5-6-2-11v-285l2-7 9-9 5-2z" fill="#032777"/>
<path transform="translate(905,544)" d="m0 0h76l29 1 24 3 17 5 16 7 16 9 11 9 8 7 9 11 9 14 7 15 5 21v20l-3 16-5 15-7 14-7 10-9 10-7 7-14 10-17 10-13 9 2 9 8 15 14 22 9 14 8 15 2 8-2 8-5 6-10 5-3 1h-11l-8-4-10-11-17-25-8-12-9-13-21-32-9-15-1-3v-9l3-8 5-5 4-3 10-3 22-3 15-4 16-8 11-9 7-10 6-12 3-11 1-8v-10l-2-12-7-16-9-12-10-9-16-8-16-5-17-2h-65l-21 1-3 3 1 208v38l-3 12-5 8-5 4-10 3-12-2-6-4-4-5-2-5-1-6v-271l2-12 4-8 7-5 8-2z" fill="#032777"/>
<path transform="translate(442,546)" d="m0 0 9 1 8 4 7 10 3 11 1 126 1 17 4 19 8 20 9 16 12 14 13 11 14 8 13 6 13 4 12 2h23l18-3 18-6 16-9 13-10 9-9 10-14 8-15 6-18 3-16 1-10 1-140 3-6 6-7 8-4 8-1 9 2 6 5 6 12 1 4 1 40v98l-2 22-5 21-8 20-8 15-14 20-13 13-10 9-16 11-18 10-15 6-17 5-23 4h-29l-14-2-21-6-17-7-19-11-17-13-18-18-13-18-9-16-8-19-5-18-2-15-1-14v-139l3-8 9-10z" fill="#032777"/>
<path transform="translate(155,546)" d="m0 0h127l19 1 9 3 5 5 5 9 2 10-5 10-5 5-6 4-7 2-16 1-80 1-13 1-5 4-1 2v231l-2 12-3 7-6 7-7 3h-12l-10-5-6-8-2-8-1-244-20-2h-53l-34-1-12-2-8-4-8-7v-23l10-10 7-3z" fill="#032777"/>
<path transform="translate(2046,730)" d="m0 0h2v150h-157l3-2 29-7 21-8 16-8 11-7 12-9 14-12 8-8 13-17 12-21 5-12 8-24 2-13z" fill="#FCFCFC"/>
</svg>
